<?xml version="1.0" encoding="UTF-8" standalone="no"?>
<svg width="1365px" height="233px" viewBox="0 0 1365 233" version="1.1" xmlns="http://www.w3.org/2000/svg" xmlns:xlink="http://www.w3.org/1999/xlink">
    <!-- Generator: Sketch 41.2 (35397) - http://www.bohemiancoding.com/sketch -->
    <title>Group 17</title>
    <desc>Created with Sketch.</desc>
    <defs>
        <rect id="path-1" x="0.390731128" y="0.920504853" width="12" height="12"></rect>
        <mask id="mask-2" maskContentUnits="userSpaceOnUse" maskUnits="objectBoundingBox" x="0" y="0" width="12" height="12" fill="white">
            <use xlink:href="#path-1"></use>
        </mask>
        <rect id="path-3" x="158.688764" y="1.47022628" width="12" height="12"></rect>
        <mask id="mask-4" maskContentUnits="userSpaceOnUse" maskUnits="objectBoundingBox" x="0" y="0" width="12" height="12" fill="white">
            <use xlink:href="#path-3"></use>
        </mask>
        <rect id="path-5" x="0" y="0" width="424" height="173"></rect>
        <rect id="path-7" x="411" y="261" width="12" height="12"></rect>
        <mask id="mask-8" maskContentUnits="userSpaceOnUse" maskUnits="objectBoundingBox" x="0" y="0" width="12" height="12" fill="white">
            <use xlink:href="#path-7"></use>
        </mask>
        <rect id="path-9" x="544" y="261" width="12" height="12"></rect>
        <mask id="mask-10" maskContentUnits="userSpaceOnUse" maskUnits="objectBoundingBox" x="0" y="0" width="12" height="12" fill="white">
            <use xlink:href="#path-9"></use>
        </mask>
    </defs>
    <g id="Welcome" stroke="none" stroke-width="1" fill="none" fill-rule="evenodd">
        <g id="Desktop-Copy-2" transform="translate(0.000000, -961.000000)">
            <g id="Group-17" transform="translate(-1.000000, 912.000000)">
                <polygon id="Rectangle-5" fill="#343543" points="1 238 335.441406 153.238281 951.761719 231.820312 1366 104.5 1366 281.523438 1 281.523438"></polygon>
                <g id="Group-15" transform="translate(1033.552280, 170.300442) rotate(-56.000000) translate(-1033.552280, -170.300442) translate(912.552280, 45.800442)">
                    <g id="Group-13" transform="translate(19.000000, 40.000000)">
                        <g id="Group-9-Copy-2" transform="translate(63.483218, 48.386647) rotate(88.000000) translate(-63.483218, -48.386647) translate(38.483218, -14.113353)">
                            <g id="Group-3" transform="translate(0.929412, 0.000000)"></g>
                            <g id="Group-10" transform="translate(-0.000000, 0.000000)">
                                <rect id="Rectangle" fill="#405992" x="1.70588235" y="30.9522114" width="15.8948267" height="62.8873526"></rect>
                                <rect id="Rectangle-Copy-2" fill="#273D6D" x="33.4955357" y="30.9522114" width="15.8948267" height="62.8873526"></rect>
                                <rect id="Rectangle-Copy" fill="#5D7FCC" x="14.2381696" y="30.9522114" width="22.9243697" height="62.8873526"></rect>
                                <rect id="Rectangle-3" fill="#8FD8FF" x="1.70588235" y="25.2203204" width="48.1411765" height="5.731891"></rect>
                                <rect id="Rectangle-3-Copy" fill="#CDEEFF" x="1.70588235" y="19.4884294" width="48.1411765" height="5.731891"></rect>
                                <rect id="Rectangle-4" fill="#E67059" x="1.70588235" y="0" width="48.1411765" height="22.927564" rx="10"></rect>
                                <polygon id="Path-4" fill="#FFD5B9" points="0.966910123 93.366272 24.0280397 123.477471 49.4037946 93.366272"></polygon>
                                <polygon id="Path-5" fill="#6B6B6B" points="13.104264 108.978137 36.0890789 109.296638 24.5966715 124.345651"></polygon>
                            </g>
                        </g>
                        <path d="M119.63286,83.5125586 C130.64472,84.2299518 143.509281,73.7173811 150.407178,56.3852267 C161.145527,29.4032737 172.473465,45.6315084 172.473465,45.6315084 C172.473465,45.6315084 185.540212,60.1728672 193.993378,60.1728672 C202.446544,60.1728672 202.600875,44.627607 186.758497,41.5199591 C181.123053,39.4349332 207.946363,48.3600607 210.764085,38.8569294 C213.581807,29.3537981 198.090182,23.7141658 187.06716,27.5776649 C185.138015,27.3296147 207.502075,22.3732906 203.353827,14.5129069 C199.205579,6.65252326 189.349398,8.40759553 167.118625,20.2859247 C164.145615,23.2114282 150.000016,24.7807322 138.757753,40.2801566 C122.823491,62.2483203 102.817076,66.6139289 77.8056147,67.031446 C-9.54006554,68.4895101 137.781343,199.095369 137.781343,199.095369 L137.532808,156.123053 C137.532808,156.123053 73.6291278,103.256882 76.3784852,92.7065598 C79.1278425,82.156238 74.024828,80.5413175 119.63286,83.5125586 Z" id="Path-3-Copy-4" fill="#343543" transform="translate(130.615415, 104.411579) scale(-1, 1) rotate(7.000000) translate(-130.615415, -104.411579) "></path>
                    </g>
                    <g id="Group-12" transform="translate(23.395320, 85.918757) rotate(79.000000) translate(-23.395320, -85.918757) translate(-62.104680, 78.918757)" stroke="#5D7FCC">
                        <use id="Rectangle-6" mask="url(#mask-2)" stroke-width="6" fill="#EDEBE6" xlink:href="#path-1"></use>
                        <use id="Rectangle-6-Copy" mask="url(#mask-4)" stroke-width="6" fill="#EDEBE6" xlink:href="#path-3"></use>
                        <path d="M12.2551706,7 L160.110802,7.18680587" id="Line" stroke-width="4" stroke-linecap="square"></path>
                        <circle id="Oval-4" stroke-width="3" fill="#FFFFFF" cx="87" cy="6" r="6"></circle>
                    </g>
                </g>
                <g id="Group-16" transform="translate(0.000000, 22.000000)">
                    <mask id="mask-6" fill="white">
                        <use xlink:href="#path-5"></use>
                    </mask>
                    <g id="Mask"></g>
                    <g mask="url(#mask-6)">
                        <g transform="translate(-146.000000, -136.000000)">
                            <g id="Group-4" stroke="none" stroke-width="1" fill="none">
                                <use id="Rectangle-6" stroke="#5D7FCC" mask="url(#mask-8)" stroke-width="6" xlink:href="#path-7"></use>
                                <use id="Rectangle-6-Copy" stroke="#5D7FCC" mask="url(#mask-10)" stroke-width="6" xlink:href="#path-9"></use>
                                <path d="M422,267 L545,267" id="Line" stroke="#5D7FCC" stroke-width="4" stroke-linecap="square"></path>
                                <g id="Group-11"></g>
                            </g>
                            <circle id="Oval-4" stroke="#5D7FCC" stroke-width="3" fill="#EDEBE6" cx="482" cy="266" r="6"></circle>
                            <g id="Group-9" stroke="none" stroke-width="1" fill="none" transform="translate(438.871843, 220.871843) rotate(-45.000000) translate(-438.871843, -220.871843) translate(413.871843, 158.371843)">
                                <g id="Group-3" transform="translate(0.929412, -0.000000)"></g>
                                <g id="Group-10" transform="translate(-0.000000, 0.000000)">
                                    <rect id="Rectangle" fill="#405992" x="1.70588235" y="30.9522114" width="15.8948267" height="62.8873526"></rect>
                                    <rect id="Rectangle-Copy-2" fill="#273D6D" x="33.4955357" y="30.9522114" width="15.8948267" height="62.8873526"></rect>
                                    <rect id="Rectangle-Copy" fill="#5D7FCC" x="14.2381696" y="30.9522114" width="22.9243697" height="62.8873526"></rect>
                                    <rect id="Rectangle-3" fill="#8FD8FF" x="1.70588235" y="25.2203204" width="48.1411765" height="5.731891"></rect>
                                    <rect id="Rectangle-3-Copy" fill="#CDEEFF" x="1.70588235" y="19.4884294" width="48.1411765" height="5.731891"></rect>
                                    <rect id="Rectangle-4" fill="#E67059" x="1.70588235" y="-1.13686838e-13" width="48.1411765" height="22.927564" rx="10"></rect>
                                    <polygon id="Path-4" fill="#FFD5B9" points="0.966910123 93.366272 24.0280397 123.477471 49.4037946 93.366272"></polygon>
                                    <polygon id="Path-5" fill="#6B6B6B" points="13.104264 108.978137 36.0890789 109.296638 24.5966715 124.345651"></polygon>
                                </g>
                            </g>
                            <path d="M338.910795,220.459532 C346.657899,221.698797 365.577894,211.209555 372.475791,193.877401 C383.21414,166.895448 394.542078,183.123683 394.542078,183.123683 C394.542078,183.123683 407.608825,197.665041 416.061991,197.665041 C424.515157,197.665041 424.669488,182.119781 408.82711,179.012133 C403.191666,176.927108 430.014976,185.852235 432.832697,176.349104 C435.650419,166.845972 420.158795,161.20634 409.135773,165.069839 C407.206627,164.821789 429.570687,159.865465 425.42244,152.005081 C421.274192,144.144698 411.418011,145.89977 389.187237,157.778099 C386.214228,160.703603 372.068629,162.272907 360.826365,177.772331 C344.892104,199.740495 345.860005,203.657563 320.998017,201.053815 C298.015172,198.646865 272.80535,231.879546 245.989101,241.125043 C233.934,245.281307 220.847531,234.633274 199.28674,245.619046 C195.385391,247.606883 155.823442,278.951392 155.823442,278.951392 L166.672131,293.151092 C166.672131,293.151092 200.047904,266.839143 204.555538,264.542389 C219.043095,257.16061 235.097153,263.875313 248.996712,261.803469 C267.447852,259.053174 302.633828,214.656491 338.910795,220.459532 Z" id="Path-3-Copy-4" stroke="none" fill="#343543" transform="translate(294.496284, 220.185528) scale(-1, 1) rotate(-153.000000) translate(-294.496284, -220.185528) "></path>
                        </g>
                    </g>
                </g>
            </g>
        </g>
    </g>
</svg>