<?xml version="1.0" encoding="UTF-8" standalone="no"?>
<svg width="171px" height="114px" viewBox="0 0 171 114" version="1.1" xmlns="http://www.w3.org/2000/svg" xmlns:xlink="http://www.w3.org/1999/xlink">
    <!-- Generator: Sketch 41.2 (35397) - http://www.bohemiancoding.com/sketch -->
    <title>Group 12</title>
    <desc>Created with Sketch.</desc>
    <defs></defs>
    <g id="Welcome" stroke="none" stroke-width="1" fill="none" fill-rule="evenodd">
        <g id="Desktop-Copy-2" transform="translate(-1194.000000, -444.000000)">
            <g id="Group-12" transform="translate(1183.000000, 439.000000)">
                <g id="Group-9-Copy" transform="translate(67.037670, 51.207343) rotate(63.000000) translate(-67.037670, -51.207343) translate(42.037670, -11.292657)">
                    <g id="Group-3" transform="translate(0.929412, 0.000000)"></g>
                    <g id="Group-10" transform="translate(-0.000000, 0.000000)">
                        <rect id="Rectangle" fill="#405992" x="1.70588235" y="30.9522114" width="15.8948267" height="62.8873526"></rect>
                        <rect id="Rectangle-Copy-2" fill="#273D6D" x="33.4955357" y="30.9522114" width="15.8948267" height="62.8873526"></rect>
                        <rect id="Rectangle-Copy" fill="#5D7FCC" x="14.2381696" y="30.9522114" width="22.9243697" height="62.8873526"></rect>
                        <rect id="Rectangle-3" fill="#8FD8FF" x="1.70588235" y="25.2203204" width="48.1411765" height="5.731891"></rect>
                        <rect id="Rectangle-3-Copy" fill="#CDEEFF" x="1.70588235" y="19.4884294" width="48.1411765" height="5.731891"></rect>
                        <rect id="Rectangle-4" fill="#E67059" x="1.70588235" y="0" width="48.1411765" height="22.927564" rx="10"></rect>
                        <polygon id="Path-4" fill="#FFD5B9" points="0.966910123 93.366272 24.0280397 123.477471 49.4037946 93.366272"></polygon>
                        <polygon id="Path-5" fill="#6B6B6B" points="13.104264 108.978137 36.0890789 109.296638 24.5966715 124.345651"></polygon>
                    </g>
                </g>
                <path d="M121.821504,93.3462993 C132.833365,94.0636925 145.697926,83.5511217 152.595822,66.2189674 C163.334171,39.2370144 174.66211,55.4652491 174.66211,55.4652491 C174.66211,55.4652491 187.728857,70.0066079 196.182022,70.0066079 C204.635188,70.0066079 204.78952,54.4613477 188.947141,51.3536998 C183.311698,49.2686739 210.135007,58.1938014 212.952729,48.6906701 C215.770451,39.1875388 200.278826,33.5479065 189.255805,37.4114056 C187.326659,37.1633554 209.690719,32.2070313 205.542471,24.3466476 C201.394223,16.4862639 191.538043,18.2413362 169.307269,30.1196654 C166.334259,33.0451689 152.18866,34.6144729 140.946397,50.1138973 C125.012136,72.082061 125.843183,75.0947026 100.981195,72.4909543 C16.7099065,63.6653839 82.2284276,143.292657 82.2284276,143.292657 L95.8028197,121.270393 C95.8028197,121.270393 75.8177722,113.090622 78.5671295,102.5403 C81.3164868,91.9899787 76.2134724,90.3750582 121.821504,93.3462993 Z" id="Path-3-Copy-5" fill="#343543" transform="translate(135.624888, 81.427094) scale(-1, 1) rotate(7.000000) translate(-135.624888, -81.427094) "></path>
            </g>
        </g>
    </g>
</svg>