<?xml version="1.0" encoding="UTF-8" standalone="no"?>
<svg width="167px" height="89px" viewBox="0 0 167 89" version="1.1" xmlns="http://www.w3.org/2000/svg" xmlns:xlink="http://www.w3.org/1999/xlink">
    <!-- Generator: Sketch 41.2 (35397) - http://www.bohemiancoding.com/sketch -->
    <title>Group 4</title>
    <desc>Created with Sketch.</desc>
    <defs></defs>
    <g id="Welcome" stroke="none" stroke-width="1" fill="none" fill-rule="evenodd">
        <g id="Desktop-Copy-2" transform="translate(-1198.000000, -604.000000)">
            <g id="Group-4" transform="translate(1184.000000, 586.000000)">
                <g id="Group-9-Copy-2" transform="translate(66.032886, 55.564477) rotate(123.000000) translate(-66.032886, -55.564477) translate(41.032886, -6.935523)">
                    <g id="Group-3" transform="translate(0.929412, 0.000000)"></g>
                    <g id="Group-10" transform="translate(-0.000000, 0.000000)">
                        <rect id="Rectangle" fill="#405992" x="1.70588235" y="30.9522114" width="15.8948267" height="62.8873526"></rect>
                        <rect id="Rectangle-Copy-2" fill="#273D6D" x="33.4955357" y="30.9522114" width="15.8948267" height="62.8873526"></rect>
                        <rect id="Rectangle-Copy" fill="#5D7FCC" x="14.2381696" y="30.9522114" width="22.9243697" height="62.8873526"></rect>
                        <rect id="Rectangle-3" fill="#8FD8FF" x="1.70588235" y="25.2203204" width="48.1411765" height="5.731891"></rect>
                        <rect id="Rectangle-3-Copy" fill="#CDEEFF" x="1.70588235" y="19.4884294" width="48.1411765" height="5.731891"></rect>
                        <rect id="Rectangle-4" fill="#E67059" x="1.70588235" y="0" width="48.1411765" height="22.927564" rx="10"></rect>
                        <polygon id="Path-4" fill="#FFD5B9" points="0.966910123 93.366272 24.0280397 123.477471 49.4037946 93.366272"></polygon>
                        <polygon id="Path-5" fill="#6B6B6B" points="13.104264 108.978137 36.0890789 109.296638 24.5966715 124.345651"></polygon>
                    </g>
                </g>
                <path d="M133.821504,104.346299 C144.833365,105.063693 157.697926,94.5511217 164.595822,77.2189674 C175.334171,50.2370144 186.66211,66.4652491 186.66211,66.4652491 C186.66211,66.4652491 199.728857,81.0066079 208.182022,81.0066079 C216.635188,81.0066079 216.78952,65.4613477 200.947141,62.3536998 C195.311698,60.2686739 222.135007,69.1938014 224.952729,59.6906701 C227.770451,50.1875388 212.278826,44.5479065 201.255805,48.4114056 C199.326659,48.1633554 221.690719,43.2070313 217.542471,35.3466476 C213.394223,27.4862639 203.538043,29.2413362 181.307269,41.1196654 C178.334259,44.0451689 164.18866,45.6144729 152.946397,61.1138973 C137.012136,83.082061 137.843183,86.0947026 112.981195,83.4909543 C28.7099065,74.6653839 94.2284276,154.292657 94.2284276,154.292657 L107.80282,132.270393 C107.80282,132.270393 87.8177722,124.090622 90.5671295,113.5403 C93.3164868,102.989979 88.2134724,101.375058 133.821504,104.346299 Z" id="Path-3-Copy-4" fill="#343543" transform="translate(147.624888, 92.427094) scale(-1, 1) rotate(7.000000) translate(-147.624888, -92.427094) "></path>
            </g>
        </g>
    </g>
</svg>