<?xml version="1.0" encoding="UTF-8" standalone="no"?>
<svg width="282px" height="194px" viewBox="0 0 282 194" version="1.1" xmlns="http://www.w3.org/2000/svg" xmlns:xlink="http://www.w3.org/1999/xlink">
    <!-- Generator: Sketch 41.2 (35397) - http://www.bohemiancoding.com/sketch -->
    <title>Group 15</title>
    <desc>Created with Sketch.</desc>
    <defs>
        <rect id="path-1" x="0.390731128" y="0.920504853" width="12" height="12"></rect>
        <mask id="mask-2" maskContentUnits="userSpaceOnUse" maskUnits="objectBoundingBox" x="0" y="0" width="12" height="12" fill="white">
            <use xlink:href="#path-1"></use>
        </mask>
        <rect id="path-3" x="158.688764" y="1.47022628" width="12" height="12"></rect>
        <mask id="mask-4" maskContentUnits="userSpaceOnUse" maskUnits="objectBoundingBox" x="0" y="0" width="12" height="12" fill="white">
            <use xlink:href="#path-3"></use>
        </mask>
    </defs>
    <g id="Welcome" stroke="none" stroke-width="1" fill="none" fill-rule="evenodd">
        <g id="Desktop-Copy-2" transform="translate(-865.000000, -987.000000)">
            <g id="Group-15" transform="translate(1032.552280, 1082.300442) rotate(-56.000000) translate(-1032.552280, -1082.300442) translate(911.552280, 957.800442)">
                <g id="Group-13" transform="translate(19.000000, 40.000000)">
                    <g id="Group-9-Copy-2" transform="translate(63.483218, 48.386647) rotate(88.000000) translate(-63.483218, -48.386647) translate(38.483218, -14.113353)">
                        <g id="Group-3" transform="translate(0.929412, 0.000000)"></g>
                        <g id="Group-10" transform="translate(-0.000000, 0.000000)">
                            <rect id="Rectangle" fill="#405992" x="1.70588235" y="30.9522114" width="15.8948267" height="62.8873526"></rect>
                            <rect id="Rectangle-Copy-2" fill="#273D6D" x="33.4955357" y="30.9522114" width="15.8948267" height="62.8873526"></rect>
                            <rect id="Rectangle-Copy" fill="#5D7FCC" x="14.2381696" y="30.9522114" width="22.9243697" height="62.8873526"></rect>
                            <rect id="Rectangle-3" fill="#8FD8FF" x="1.70588235" y="25.2203204" width="48.1411765" height="5.731891"></rect>
                            <rect id="Rectangle-3-Copy" fill="#CDEEFF" x="1.70588235" y="19.4884294" width="48.1411765" height="5.731891"></rect>
                            <rect id="Rectangle-4" fill="#E67059" x="1.70588235" y="0" width="48.1411765" height="22.927564" rx="10"></rect>
                            <polygon id="Path-4" fill="#FFD5B9" points="0.966910123 93.366272 24.0280397 123.477471 49.4037946 93.366272"></polygon>
                            <polygon id="Path-5" fill="#6B6B6B" points="13.104264 108.978137 36.0890789 109.296638 24.5966715 124.345651"></polygon>
                        </g>
                    </g>
                    <path d="M119.63286,83.5125586 C130.64472,84.2299518 143.509281,73.7173811 150.407178,56.3852267 C161.145527,29.4032737 172.473465,45.6315084 172.473465,45.6315084 C172.473465,45.6315084 185.540212,60.1728672 193.993378,60.1728672 C202.446544,60.1728672 202.600875,44.627607 186.758497,41.5199591 C181.123053,39.4349332 207.946363,48.3600607 210.764085,38.8569294 C213.581807,29.3537981 198.090182,23.7141658 187.06716,27.5776649 C185.138015,27.3296147 207.502075,22.3732906 203.353827,14.5129069 C199.205579,6.65252326 189.349398,8.40759553 167.118625,20.2859247 C164.145615,23.2114282 150.000016,24.7807322 138.757753,40.2801566 C122.823491,62.2483203 102.817076,66.6139289 77.8056147,67.031446 C-9.54006554,68.4895101 137.781343,199.095369 137.781343,199.095369 L137.532808,156.123053 C137.532808,156.123053 73.6291278,103.256882 76.3784852,92.7065598 C79.1278425,82.156238 74.024828,80.5413175 119.63286,83.5125586 Z" id="Path-3-Copy-4" fill="#343543" transform="translate(130.615415, 104.411579) scale(-1, 1) rotate(7.000000) translate(-130.615415, -104.411579) "></path>
                </g>
                <g id="Group-12" transform="translate(23.395320, 85.918757) rotate(79.000000) translate(-23.395320, -85.918757) translate(-62.104680, 78.918757)" stroke="#5D7FCC">
                    <use id="Rectangle-6" mask="url(#mask-2)" stroke-width="6" fill="#EDEBE6" xlink:href="#path-1"></use>
                    <use id="Rectangle-6-Copy" mask="url(#mask-4)" stroke-width="6" fill="#EDEBE6" xlink:href="#path-3"></use>
                    <path d="M12.2551706,7 L160.110802,7.18680587" id="Line" stroke-width="4" stroke-linecap="square"></path>
                    <circle id="Oval-4" stroke-width="3" fill="#FFFFFF" cx="87" cy="6" r="6"></circle>
                </g>
            </g>
        </g>
    </g>
</svg>